<?xml version="1.0" standalone="no"?>
<!DOCTYPE svg PUBLIC "-//W3C//DTD SVG 20010904//EN"
 "http://www.w3.org/TR/2001/REC-SVG-20010904/DTD/svg10.dtd">
<svg version="1.0" xmlns="http://www.w3.org/2000/svg"
 width="500.000000pt" height="500.000000pt" viewBox="0 0 500.000000 500.000000"
 preserveAspectRatio="xMidYMid meet">

<g transform="translate(0.000000,500.000000) scale(0.100000,-0.100000)"
fill="#000000" stroke="none">
<path d="M2055 4183 c-129 -14 -232 -59 -293 -128 -44 -50 -92 -161 -92 -211
l0 -31 88 -12 c452 -64 965 -374 1453 -876 252 -259 445 -531 585 -820 91
-189 135 -335 161 -530 l8 -60 40 3 c41 3 163 58 201 90 149 127 168 417 50
747 -198 550 -772 1208 -1356 1556 -306 182 -652 293 -845 272z"/>
<path d="M1409 3703 c-137 -139 -159 -165 -178 -218 -34 -91 -44 -161 -37
-260 27 -402 308 -903 780 -1392 44 -46 83 -83 87 -83 12 0 213 225 290 323
38 49 69 97 69 106 0 9 -27 43 -61 76 -256 251 -501 597 -646 910 -95 207
-133 355 -142 558 l-6 138 -156 -158z"/>
<path d="M2300 3214 c-84 -16 -172 -38 -229 -58 -88 -31 -201 -85 -201 -96 0
-14 196 -330 204 -330 1 0 62 31 136 68 164 82 325 135 445 145 40 3 44 37 14
107 -27 62 -83 113 -156 140 -54 20 -166 33 -213 24z"/>
<path d="M2792 2866 c-7 -332 -260 -787 -649 -1166 -156 -154 -219 -206 -348
-296 -299 -207 -560 -314 -767 -314 -68 0 -88 -3 -88 -14 0 -7 47 -58 104
-114 83 -79 116 -104 162 -122 185 -71 511 24 844 246 150 100 255 187 400
333 212 214 373 430 475 636 98 200 142 366 132 505 -7 113 -30 156 -149 277
-56 56 -105 103 -108 103 -3 0 -7 -33 -8 -74z"/>
<path d="M1192 2535 c-181 -191 -352 -442 -433 -636 -47 -113 -68 -185 -87
-291 -26 -152 1 -267 80 -347 35 -36 97 -67 144 -73 27 -3 29 0 37 42 47 250
126 439 279 667 48 72 174 232 246 312 l40 45 -57 85 c-32 47 -79 127 -106
176 -26 50 -51 94 -55 98 -4 4 -44 -31 -88 -78z"/>
<path d="M2844 1733 c-63 -91 -142 -189 -225 -282 -38 -42 -69 -79 -69 -83 0
-24 320 -191 467 -244 156 -56 262 -77 398 -78 101 -1 131 3 187 22 89 31 129
61 286 217 l132 132 -157 6 c-174 6 -243 20 -409 83 -172 64 -340 149 -484
244 -30 20 -60 40 -67 43 -7 4 -30 -19 -59 -60z"/>
</g>
</svg>
